<svg width="15" height="15" viewBox="0 0 15 15" fill="none" xmlns="http://www.w3.org/2000/svg">
<path d="M11.8488 7.81186L8.62501 6.62061L7.43751 3.39436C7.36719 3.20331 7.23995 3.03843 7.07298 2.92197C6.90601 2.80551 6.70733 2.74306 6.50376 2.74306C6.30018 2.74306 6.1015 2.80551 5.93453 2.92197C5.76756 3.03843 5.64033 3.20331 5.57001 3.39436L4.37501 6.62061L1.14876 7.80811C0.957714 7.87843 0.792837 8.00566 0.676374 8.17263C0.559911 8.3396 0.497467 8.53828 0.497467 8.74186C0.497467 8.94543 0.559911 9.14411 0.676374 9.31108C0.792837 9.47805 0.957714 9.60528 1.14876 9.67561L4.37501 10.8706L5.56251 14.0969C5.63283 14.2879 5.76006 14.4528 5.92703 14.5692C6.094 14.6857 6.29268 14.7481 6.49626 14.7481C6.69983 14.7481 6.89851 14.6857 7.06548 14.5692C7.23245 14.4528 7.35969 14.2879 7.43001 14.0969L8.62501 10.8706L11.8513 9.68311C12.0423 9.61278 12.2072 9.48555 12.3236 9.31858C12.4401 9.15161 12.5025 8.95293 12.5025 8.74936C12.5025 8.54578 12.4401 8.3471 12.3236 8.18013C12.2072 8.01316 12.0423 7.88593 11.8513 7.81561L11.8488 7.81186ZM8.06251 10.0094C7.99464 10.0344 7.933 10.0738 7.88186 10.125C7.83071 10.1761 7.79127 10.2377 7.76626 10.3056L6.50001 13.7362L5.23626 10.3081C5.21129 10.2395 5.1716 10.1772 5.11999 10.1256C5.06838 10.074 5.00609 10.0343 4.93751 10.0094L1.50938 8.74561L4.93751 7.48186C5.00609 7.45688 5.06838 7.4172 5.11999 7.36559C5.1716 7.31397 5.21129 7.25169 5.23626 7.18311L6.50001 3.75498L7.76376 7.18311C7.78877 7.25098 7.82821 7.31261 7.87936 7.36376C7.9305 7.4149 7.99214 7.45434 8.06001 7.47936L11.4906 8.74561L8.06251 10.0094ZM8.50001 2.24561C8.50001 2.113 8.55269 1.98582 8.64645 1.89205C8.74022 1.79828 8.8674 1.74561 9.00001 1.74561H10V0.745605C10 0.612997 10.0527 0.48582 10.1465 0.392052C10.2402 0.298284 10.3674 0.245605 10.5 0.245605C10.6326 0.245605 10.7598 0.298284 10.8536 0.392052C10.9473 0.48582 11 0.612997 11 0.745605V1.74561H12C12.1326 1.74561 12.2598 1.79828 12.3536 1.89205C12.4473 1.98582 12.5 2.113 12.5 2.24561C12.5 2.37821 12.4473 2.50539 12.3536 2.59916C12.2598 2.69293 12.1326 2.74561 12 2.74561H11V3.74561C11 3.87821 10.9473 4.00539 10.8536 4.09916C10.7598 4.19293 10.6326 4.24561 10.5 4.24561C10.3674 4.24561 10.2402 4.19293 10.1465 4.09916C10.0527 4.00539 10 3.87821 10 3.74561V2.74561H9.00001C8.8674 2.74561 8.74022 2.69293 8.64645 2.59916C8.55269 2.50539 8.50001 2.37821 8.50001 2.24561ZM15 5.24561C15 5.37821 14.9473 5.50539 14.8536 5.59916C14.7598 5.69293 14.6326 5.74561 14.5 5.74561H14V6.24561C14 6.37821 13.9473 6.50539 13.8536 6.59916C13.7598 6.69293 13.6326 6.74561 13.5 6.74561C13.3674 6.74561 13.2402 6.69293 13.1465 6.59916C13.0527 6.50539 13 6.37821 13 6.24561V5.74561H12.5C12.3674 5.74561 12.2402 5.69293 12.1465 5.59916C12.0527 5.50539 12 5.37821 12 5.24561C12 5.113 12.0527 4.98582 12.1465 4.89205C12.2402 4.79828 12.3674 4.74561 12.5 4.74561H13V4.24561C13 4.113 13.0527 3.98582 13.1465 3.89205C13.2402 3.79828 13.3674 3.74561 13.5 3.74561C13.6326 3.74561 13.7598 3.79828 13.8536 3.89205C13.9473 3.98582 14 4.113 14 4.24561V4.74561H14.5C14.6326 4.74561 14.7598 4.79828 14.8536 4.89205C14.9473 4.98582 15 5.113 15 5.24561Z" fill="white"/>
</svg>
