<svg width="13" height="15" viewBox="0 0 13 15" fill="none" xmlns="http://www.w3.org/2000/svg">
<path d="M12.5 4.18937C12.3823 4.25032 12.2452 4.26204 12.1189 4.22196C11.9925 4.18188 11.8873 4.09327 11.8263 3.97562C11.349 3.0328 10.6266 2.23593 9.735 1.66875C9.67944 1.6337 9.63132 1.58805 9.59339 1.53441C9.55547 1.48077 9.52848 1.42018 9.51397 1.35611C9.49946 1.29203 9.49772 1.22573 9.50883 1.16098C9.51995 1.09624 9.5437 1.03431 9.57875 0.978745C9.6138 0.92318 9.65945 0.875061 9.71309 0.837137C9.76673 0.799213 9.82732 0.772226 9.89139 0.757716C9.95546 0.743207 10.0218 0.74146 10.0865 0.752575C10.1513 0.76369 10.2132 0.787449 10.2688 0.822495C11.3079 1.48783 12.1516 2.41722 12.7138 3.51562C12.7747 3.63332 12.7864 3.7704 12.7463 3.89674C12.7063 4.02308 12.6177 4.12833 12.5 4.18937ZM0.731877 4.24562C0.823479 4.24558 0.91331 4.22038 0.991564 4.17277C1.06982 4.12515 1.13349 4.05696 1.17563 3.97562C1.65288 3.0328 2.37526 2.23593 3.26688 1.66875C3.3791 1.59797 3.4586 1.48551 3.48791 1.35611C3.51721 1.22671 3.49391 1.09096 3.42313 0.978745C3.35235 0.866525 3.23989 0.787019 3.11049 0.757716C2.98109 0.728414 2.84535 0.751715 2.73313 0.822495C1.694 1.48783 0.850239 2.41722 0.288127 3.51562C0.24865 3.59182 0.229451 3.6769 0.232377 3.76267C0.235303 3.84843 0.260255 3.93201 0.304832 4.00534C0.349409 4.07867 0.41211 4.1393 0.486902 4.18138C0.561694 4.22346 0.646059 4.24558 0.731877 4.24562ZM12.3631 10.7419C12.4517 10.8938 12.4987 11.0663 12.4993 11.2422C12.4999 11.418 12.4541 11.5909 12.3666 11.7434C12.279 11.8959 12.1528 12.0227 12.0007 12.1108C11.8485 12.199 11.6758 12.2455 11.5 12.2456H8.95C8.83524 12.8108 8.52864 13.3189 8.08213 13.6838C7.63563 14.0488 7.07668 14.2481 6.5 14.2481C5.92332 14.2481 5.36438 14.0488 4.91787 13.6838C4.47137 13.3189 4.16476 12.8108 4.05 12.2456H1.5C1.32427 12.2453 1.15172 12.1986 0.999756 12.1104C0.847789 12.0221 0.721764 11.8954 0.634376 11.7429C0.546988 11.5904 0.501324 11.4176 0.501982 11.2419C0.502641 11.0661 0.549599 10.8937 0.638127 10.7419C1.20125 9.76999 1.5 8.38812 1.5 6.74562C1.5 5.41954 2.02679 4.14777 2.96447 3.21009C3.90215 2.2724 5.17392 1.74562 6.5 1.74562C7.82608 1.74562 9.09785 2.2724 10.0355 3.21009C10.9732 4.14777 11.5 5.41954 11.5 6.74562C11.5 8.3875 11.7988 9.76937 12.3631 10.7419ZM7.91375 12.2456H5.08625C5.18984 12.5378 5.38138 12.7906 5.63454 12.9695C5.8877 13.1483 6.19005 13.2443 6.5 13.2443C6.80996 13.2443 7.1123 13.1483 7.36546 12.9695C7.61862 12.7906 7.81016 12.5378 7.91375 12.2456ZM11.5 11.2456C10.835 10.1037 10.5 8.59 10.5 6.74562C10.5 5.68475 10.0786 4.66734 9.32843 3.91719C8.57828 3.16705 7.56087 2.74562 6.5 2.74562C5.43914 2.74562 4.42172 3.16705 3.67157 3.91719C2.92143 4.66734 2.5 5.68475 2.5 6.74562C2.5 8.59062 2.16375 10.1044 1.5 11.2456H11.5Z" fill="white"/>
</svg>
