<svg width="17" height="17" viewBox="0 0 17 17" fill="none" xmlns="http://www.w3.org/2000/svg">
<path d="M15 13.7456C15 13.8782 14.9473 14.0054 14.8536 14.0992C14.7598 14.1929 14.6326 14.2456 14.5 14.2456H2.5C2.36739 14.2456 2.24021 14.1929 2.14645 14.0992C2.05268 14.0054 2 13.8782 2 13.7456V3.74561C2 3.613 2.05268 3.48582 2.14645 3.39205C2.24021 3.29828 2.36739 3.24561 2.5 3.24561C2.63261 3.24561 2.75979 3.29828 2.85355 3.39205C2.94732 3.48582 3 3.613 3 3.74561V9.64373L6.17063 6.87061C6.2569 6.79508 6.36652 6.7515 6.4811 6.74718C6.59569 6.74286 6.70828 6.77805 6.8 6.84686L10.4756 9.60373L14.1706 6.37061C14.2191 6.32265 14.2768 6.2851 14.3403 6.26028C14.4038 6.23546 14.4717 6.22388 14.5398 6.22625C14.6079 6.22863 14.6749 6.24492 14.7365 6.2741C14.7981 6.30329 14.8531 6.34477 14.898 6.39599C14.943 6.44721 14.9771 6.50708 14.9981 6.57194C15.0191 6.63679 15.0266 6.70526 15.0201 6.77312C15.0137 6.84099 14.9935 6.90682 14.9607 6.96658C14.9279 7.02633 14.8832 7.07875 14.8294 7.12061L10.8294 10.6206C10.7431 10.6961 10.6335 10.7397 10.5189 10.744C10.4043 10.7484 10.2917 10.7132 10.2 10.6444L6.52437 7.88873L3 10.9725V13.2456H14.5C14.6326 13.2456 14.7598 13.2983 14.8536 13.3921C14.9473 13.4858 15 13.613 15 13.7456Z" fill="white"/>
</svg>
