<svg width="13" height="14" viewBox="0 0 13 14" fill="none" xmlns="http://www.w3.org/2000/svg">
<path d="M12.3669 3.94311C13.0607 5.39424 13.1924 7.05094 12.7366 8.59346C12.2808 10.136 11.2697 11.455 9.89859 12.2959C8.52745 13.1368 6.89342 13.4401 5.31186 13.147C3.73031 12.854 2.31335 11.9856 1.33445 10.7093C0.355559 9.43299 -0.115873 7.83932 0.011143 6.23588C0.138159 4.63243 0.854619 3.13287 2.02225 2.02661C3.18987 0.920348 4.72589 0.285809 6.33386 0.245458C7.94182 0.205107 9.50773 0.761805 10.7294 1.80811L12.1463 0.39061C12.2401 0.29679 12.3673 0.244082 12.5 0.244082C12.6327 0.244082 12.7599 0.29679 12.8538 0.39061C12.9476 0.48443 13.0003 0.611678 13.0003 0.74436C13.0003 0.877042 12.9476 1.00429 12.8538 1.09811L6.85375 7.09811C6.75993 7.19193 6.63268 7.24464 6.5 7.24464C6.36732 7.24464 6.24007 7.19193 6.14625 7.09811C6.05243 7.00429 5.99972 6.87704 5.99972 6.74436C5.99972 6.61168 6.05243 6.48443 6.14625 6.39061L7.87875 4.65811C7.40922 4.34758 6.84863 4.20461 6.28773 4.25233C5.72683 4.30005 5.19845 4.53567 4.78813 4.92106C4.37781 5.30645 4.10957 5.81904 4.02682 6.37585C3.94408 6.93266 4.05168 7.5011 4.3322 7.98915C4.61272 8.4772 5.04975 8.85629 5.57253 9.06505C6.09532 9.27382 6.67326 9.30003 7.2128 9.13946C7.75234 8.97888 8.22189 8.64091 8.54545 8.18027C8.869 7.71962 9.02762 7.16325 8.99563 6.60124C8.99193 6.53557 9.00121 6.46983 9.02292 6.40775C9.04464 6.34568 9.07837 6.28849 9.12219 6.23944C9.166 6.1904 9.21905 6.15047 9.2783 6.12193C9.33755 6.09339 9.40184 6.0768 9.4675 6.07311C9.60011 6.06565 9.73025 6.11118 9.82929 6.19967C9.87833 6.24349 9.91826 6.29654 9.9468 6.35578C9.97534 6.41503 9.99193 6.47932 9.99563 6.54499C10.0412 7.34047 9.814 8.1277 9.35156 8.77656C8.88911 9.42542 8.21911 9.89707 7.45229 10.1136C6.68547 10.33 5.86774 10.2784 5.13425 9.96717C4.40075 9.65594 3.79541 9.10375 3.41826 8.40187C3.04112 7.69999 2.91475 6.89043 3.06004 6.107C3.20533 5.32357 3.61359 4.61316 4.21734 4.09319C4.82108 3.57322 5.58418 3.27482 6.38049 3.2473C7.17681 3.21979 7.95868 3.46481 8.59688 3.94186L10.0188 2.51999C8.97675 1.65486 7.65186 1.20521 6.29854 1.25741C4.94521 1.3096 3.65889 1.85996 2.68662 2.80278C1.71435 3.74559 1.12469 5.01438 1.0309 6.36546C0.937113 7.71654 1.3458 9.05463 2.17848 10.1227C3.01115 11.1909 4.20909 11.9137 5.54222 12.1524C6.87535 12.391 8.24967 12.1288 9.40121 11.4159C10.5527 10.7031 11.4003 9.58989 11.7811 8.2902C12.1619 6.99051 12.0491 5.59595 11.4644 4.37436C11.4072 4.25468 11.3999 4.11719 11.4441 3.99212C11.4883 3.86706 11.5803 3.76467 11.7 3.70749C11.8197 3.6503 11.9572 3.643 12.0822 3.68718C12.2073 3.73137 12.3097 3.82343 12.3669 3.94311Z" fill="white"/>
</svg>
