<svg width="14" height="14" viewBox="0 0 14 14" fill="none" xmlns="http://www.w3.org/2000/svg">
<path d="M5.00001 1.2456V0.745601C5.00001 0.612993 5.05269 0.485816 5.14646 0.392047C5.24023 0.298279 5.3674 0.245601 5.50001 0.245601C5.63262 0.245601 5.7598 0.298279 5.85356 0.392047C5.94733 0.485816 6.00001 0.612993 6.00001 0.745601V1.2456C6.00001 1.37821 5.94733 1.50539 5.85356 1.59915C5.7598 1.69292 5.63262 1.7456 5.50001 1.7456C5.3674 1.7456 5.24023 1.69292 5.14646 1.59915C5.05269 1.50539 5.00001 1.37821 5.00001 1.2456ZM0.500011 6.2456H1.00001C1.13262 6.2456 1.2598 6.19292 1.35356 6.09915C1.44733 6.00539 1.50001 5.87821 1.50001 5.7456C1.50001 5.61299 1.44733 5.48582 1.35356 5.39205C1.2598 5.29828 1.13262 5.2456 1.00001 5.2456H0.500011C0.367402 5.2456 0.240225 5.29828 0.146457 5.39205C0.052689 5.48582 1.062e-05 5.61299 1.062e-05 5.7456C1.062e-05 5.87821 0.052689 6.00539 0.146457 6.09915C0.240225 6.19292 0.367402 6.2456 0.500011 6.2456ZM7.27626 2.1931C7.33502 2.22253 7.399 2.24008 7.46455 2.24476C7.5301 2.24944 7.59593 2.24115 7.65827 2.22037C7.72061 2.19959 7.77824 2.16672 7.82788 2.12365C7.87751 2.08058 7.91816 2.02815 7.94751 1.96935L8.44751 0.969351C8.50685 0.850749 8.51665 0.713432 8.47475 0.587607C8.43285 0.461781 8.34268 0.357756 8.22407 0.298413C8.10547 0.239071 7.96815 0.229274 7.84233 0.271176C7.7165 0.313079 7.61248 0.403249 7.55314 0.521851L7.05314 1.52185C7.02369 1.58057 7.0061 1.64452 7.00137 1.71004C6.99665 1.77556 7.00489 1.84137 7.02561 1.90371C7.04633 1.96605 7.07913 2.02369 7.12214 2.07335C7.16515 2.123 7.21752 2.16369 7.27626 2.1931ZM1.27626 7.29873L0.276261 7.79873C0.157659 7.85807 0.0674889 7.96209 0.0255862 8.08792C-0.0163165 8.21374 -0.00651905 8.35106 0.0528231 8.46966C0.112165 8.58827 0.216191 8.67844 0.342016 8.72034C0.467842 8.76224 0.605159 8.75244 0.723761 8.6931L1.72376 8.1931C1.78249 8.16372 1.83485 8.12305 1.87786 8.07343C1.92087 8.02382 1.95369 7.96621 1.97443 7.90391C1.99518 7.84161 2.00346 7.77583 1.99878 7.71033C1.99411 7.64483 1.97658 7.58089 1.9472 7.52216C1.91781 7.46344 1.87715 7.41107 1.82753 7.36806C1.77791 7.32505 1.72031 7.29224 1.658 7.27149C1.5957 7.25074 1.52992 7.24247 1.46442 7.24714C1.39892 7.25181 1.33499 7.26934 1.27626 7.29873ZM13.2069 11.2456C13.2998 11.3385 13.3734 11.4487 13.4237 11.5701C13.474 11.6914 13.4999 11.8214 13.4999 11.9528C13.4999 12.0841 13.474 12.2142 13.4237 12.3355C13.3734 12.4569 13.2998 12.5671 13.2069 12.66L12.4144 13.4525C12.3215 13.5454 12.2113 13.619 12.0899 13.6693C11.9686 13.7196 11.8385 13.7455 11.7072 13.7455C11.5759 13.7455 11.4458 13.7196 11.3245 13.6693C11.2031 13.619 11.0929 13.5454 11 13.4525L7.79376 10.2456L6.68751 13.1262C6.68751 13.1325 6.68251 13.1394 6.67939 13.1462C6.60286 13.3246 6.47555 13.4766 6.31329 13.5832C6.15104 13.6897 5.96101 13.7462 5.76689 13.7456H5.71751C5.51505 13.737 5.32011 13.6665 5.15904 13.5435C4.99797 13.4206 4.87853 13.2511 4.81689 13.0581L1.55001 3.0531C1.49393 2.87812 1.48714 2.69108 1.53039 2.5125C1.57364 2.33392 1.66526 2.1707 1.79519 2.04078C1.92511 1.91085 2.08833 1.81923 2.26691 1.77598C2.44549 1.73273 2.63253 1.73952 2.80751 1.7956L12.8125 5.06248C13.0037 5.12644 13.1711 5.24672 13.2928 5.40752C13.4144 5.56833 13.4846 5.76215 13.4942 5.96356C13.5037 6.16497 13.4521 6.36455 13.3462 6.53612C13.2403 6.70769 13.085 6.84324 12.9006 6.92498L12.8806 6.9331L10 8.03873L13.2069 11.2456ZM12.5 11.9525L9.29314 8.7456C9.17771 8.63038 9.09221 8.48868 9.0441 8.33285C8.99598 8.17702 8.98671 8.01178 9.0171 7.85155C9.04748 7.69131 9.11659 7.54094 9.21841 7.41353C9.32023 7.28613 9.45167 7.18556 9.60126 7.1206L9.62126 7.11185L12.4931 6.00935L2.50001 2.7456L5.76251 12.7369L6.86564 9.86185C6.86564 9.85498 6.87064 9.8481 6.87376 9.84123C6.93875 9.69175 7.03929 9.56042 7.16663 9.45868C7.29397 9.35694 7.44425 9.28787 7.60439 9.25748C7.66623 9.24601 7.72899 9.24015 7.79189 9.23998C8.05684 9.24026 8.31085 9.34569 8.49814 9.5331L11.7069 12.7456L12.5 11.9525Z" fill="white"/>
</svg>
