<svg width="11" height="14" viewBox="0 0 11 14" fill="none" xmlns="http://www.w3.org/2000/svg">
<path d="M10.8538 2.89186L8.35375 0.391856C8.30728 0.345438 8.25212 0.308631 8.19143 0.283537C8.13073 0.258443 8.06568 0.245554 8 0.245606H3C2.73478 0.245606 2.48043 0.350962 2.29289 0.538499C2.10536 0.726035 2 0.980389 2 1.24561V2.24561H1C0.734784 2.24561 0.48043 2.35096 0.292893 2.5385C0.105357 2.72604 0 2.98039 0 3.24561V12.2456C0 12.5108 0.105357 12.7652 0.292893 12.9527C0.48043 13.1402 0.734784 13.2456 1 13.2456H8C8.26522 13.2456 8.51957 13.1402 8.70711 12.9527C8.89464 12.7652 9 12.5108 9 12.2456V11.2456H10C10.2652 11.2456 10.5196 11.1402 10.7071 10.9527C10.8946 10.7652 11 10.5108 11 10.2456V3.24561C11.0001 3.17993 10.9872 3.11488 10.9621 3.05418C10.937 2.99348 10.9002 2.93832 10.8538 2.89186ZM8 12.2456H1V3.24561H5.79313L8 5.45248V10.7356C8 10.7394 8 10.7425 8 10.7456C8 10.7487 8 10.7519 8 10.7556V12.2456ZM10 10.2456H9V5.24561C9.00005 5.17992 8.98716 5.11488 8.96207 5.05418C8.93697 4.99348 8.90017 4.93832 8.85375 4.89186L6.35375 2.39186C6.30728 2.34544 6.25212 2.30863 6.19143 2.28354C6.13073 2.25844 6.06568 2.24555 6 2.24561H3V1.24561H7.79313L10 3.45248V10.2456ZM6.5 8.24561C6.5 8.37821 6.44732 8.50539 6.35355 8.59916C6.25979 8.69293 6.13261 8.74561 6 8.74561H3C2.86739 8.74561 2.74021 8.69293 2.64645 8.59916C2.55268 8.50539 2.5 8.37821 2.5 8.24561C2.5 8.113 2.55268 7.98582 2.64645 7.89205C2.74021 7.79828 2.86739 7.74561 3 7.74561H6C6.13261 7.74561 6.25979 7.79828 6.35355 7.89205C6.44732 7.98582 6.5 8.113 6.5 8.24561ZM6.5 10.2456C6.5 10.3782 6.44732 10.5054 6.35355 10.5992C6.25979 10.6929 6.13261 10.7456 6 10.7456H3C2.86739 10.7456 2.74021 10.6929 2.64645 10.5992C2.55268 10.5054 2.5 10.3782 2.5 10.2456C2.5 10.113 2.55268 9.98582 2.64645 9.89205C2.74021 9.79828 2.86739 9.74561 3 9.74561H6C6.13261 9.74561 6.25979 9.79828 6.35355 9.89205C6.44732 9.98582 6.5 10.113 6.5 10.2456Z" fill="white"/>
</svg>
