<svg width="21" height="20" viewBox="0 0 21 20" fill="none" xmlns="http://www.w3.org/2000/svg">
<path d="M14.8302 0.25H5.8302C4.43827 0.251489 3.10378 0.805091 2.11953 1.78933C1.13529 2.77358 0.581689 4.10807 0.5802 5.5V14.5C0.581689 15.8919 1.13529 17.2264 2.11953 18.2107C3.10378 19.1949 4.43827 19.7485 5.8302 19.75H14.8302C16.2221 19.7485 17.5566 19.1949 18.5409 18.2107C19.5251 17.2264 20.0787 15.8919 20.0802 14.5V5.5C20.0787 4.10807 19.5251 2.77358 18.5409 1.78933C17.5566 0.805091 16.2221 0.251489 14.8302 0.25ZM10.3302 14.5C9.44018 14.5 8.57016 14.2361 7.83013 13.7416C7.09011 13.2471 6.51334 12.5443 6.17274 11.7221C5.83215 10.8998 5.74303 9.99501 5.91667 9.12209C6.0903 8.24918 6.51888 7.44736 7.14822 6.81802C7.77756 6.18868 8.57938 5.7601 9.45229 5.58647C10.3252 5.41283 11.23 5.50195 12.0523 5.84254C12.8745 6.18314 13.5773 6.75991 14.0718 7.49993C14.5663 8.23995 14.8302 9.10998 14.8302 10C14.829 11.1931 14.3545 12.337 13.5108 13.1806C12.6672 14.0243 11.5233 14.4988 10.3302 14.5ZM15.9552 5.5C15.7327 5.5 15.5152 5.43402 15.3302 5.3104C15.1452 5.18679 15.001 5.01109 14.9158 4.80552C14.8307 4.59995 14.8084 4.37375 14.8518 4.15552C14.8952 3.93729 15.0024 3.73684 15.1597 3.5795C15.317 3.42217 15.5175 3.31502 15.7357 3.27162C15.954 3.22821 16.1802 3.25049 16.3857 3.33564C16.5913 3.42078 16.767 3.56498 16.8906 3.74998C17.0142 3.93499 17.0802 4.1525 17.0802 4.375C17.0802 4.67337 16.9617 4.95952 16.7507 5.1705C16.5397 5.38147 16.2536 5.5 15.9552 5.5ZM13.3302 10C13.3302 10.5933 13.1543 11.1734 12.8246 11.6667C12.495 12.1601 12.0264 12.5446 11.4783 12.7716C10.9301 12.9987 10.3269 13.0581 9.74493 12.9424C9.16299 12.8266 8.62844 12.5409 8.20888 12.1213C7.78932 11.7018 7.5036 11.1672 7.38784 10.5853C7.27209 10.0033 7.3315 9.40013 7.55856 8.85195C7.78562 8.30377 8.17014 7.83524 8.66349 7.50559C9.15684 7.17595 9.73686 7 10.3302 7C11.1258 7 11.8889 7.31607 12.4515 7.87868C13.0141 8.44129 13.3302 9.20435 13.3302 10Z" fill="white"/>
</svg>
