<svg width="17" height="18" viewBox="0 0 17 18" fill="none" xmlns="http://www.w3.org/2000/svg">
<path d="M16.4864 17.6109C16.4219 17.7286 16.3269 17.8267 16.2115 17.8951C16.0961 17.9636 15.9644 17.9998 15.8302 18H11.3302C11.204 18 11.0798 17.9681 10.9692 17.9073C10.8586 17.8465 10.7651 17.7587 10.6974 17.6522L6.90145 11.6869L1.3852 17.7544C1.25073 17.8988 1.06474 17.9845 0.867555 17.9927C0.670372 18.0009 0.477888 17.9311 0.331835 17.7984C0.185782 17.6657 0.0979315 17.4807 0.0873295 17.2836C0.0767275 17.0866 0.144229 16.8933 0.275199 16.7456L6.06614 10.3706L0.197386 1.15313C0.125107 1.03973 0.0846445 0.908984 0.080237 0.774582C0.0758295 0.64018 0.107639 0.507066 0.172334 0.389177C0.237029 0.271288 0.33223 0.172962 0.447968 0.104494C0.563707 0.0360256 0.695725 -6.53095e-05 0.830199 8.87202e-08H5.3302C5.45643 3.91221e-05 5.5806 0.0319361 5.69122 0.0927355C5.80184 0.153535 5.89532 0.24127 5.96301 0.347813L9.75895 6.31312L15.2752 0.245625C15.4097 0.101174 15.5957 0.015547 15.7928 0.00730857C15.99 -0.00092985 16.1825 0.0688843 16.3286 0.201615C16.4746 0.334346 16.5625 0.519295 16.5731 0.716365C16.5837 0.913434 16.5162 1.10674 16.3852 1.25438L10.5943 7.62469L16.463 16.8478C16.5349 16.9613 16.575 17.0919 16.5791 17.2262C16.5832 17.3604 16.5512 17.4933 16.4864 17.6109Z" fill="white"/>
</svg>
