<svg width="22" height="18" viewBox="0 0 22 18" fill="none" xmlns="http://www.w3.org/2000/svg">
<path d="M21.2986 3.5175C21.2103 3.17189 21.0411 2.85224 20.8049 2.58491C20.5687 2.31758 20.2723 2.11024 19.9402 1.98C16.7264 0.738753 11.6115 0.750004 11.3302 0.750004C11.049 0.750004 5.93395 0.738753 2.7202 1.98C2.3881 2.11024 2.09173 2.31758 1.85554 2.58491C1.61935 2.85224 1.4501 3.17189 1.36176 3.5175C1.11895 4.45313 0.8302 6.16313 0.8302 9C0.8302 11.8369 1.11895 13.5469 1.36176 14.4825C1.44997 14.8283 1.61915 15.1481 1.85535 15.4156C2.09156 15.6831 2.388 15.8906 2.7202 16.0209C5.79895 17.2088 10.6177 17.25 11.2683 17.25H11.3921C12.0427 17.25 16.8643 17.2088 19.9402 16.0209C20.2724 15.8906 20.5688 15.6831 20.805 15.4156C21.0412 15.1481 21.2104 14.8283 21.2986 14.4825C21.5415 13.545 21.8302 11.8369 21.8302 9C21.8302 6.16313 21.5415 4.45313 21.2986 3.5175ZM14.3855 9.61125L10.6355 12.2363C10.5233 12.3148 10.3918 12.3612 10.2551 12.3703C10.1185 12.3794 9.98192 12.351 9.8603 12.288C9.73867 12.225 9.63662 12.1299 9.56521 12.013C9.4938 11.8962 9.45575 11.762 9.4552 11.625V6.375C9.45524 6.2378 9.49291 6.10324 9.56412 5.98597C9.63533 5.86869 9.73734 5.77319 9.85905 5.70987C9.98077 5.64655 10.1175 5.61783 10.2544 5.62683C10.3913 5.63584 10.5231 5.68222 10.6355 5.76094L14.3855 8.38594C14.4842 8.45512 14.5647 8.54704 14.6203 8.65393C14.6759 8.76081 14.7049 8.87952 14.7049 9C14.7049 9.12049 14.6759 9.23919 14.6203 9.34608C14.5647 9.45297 14.4842 9.54489 14.3855 9.61407V9.61125Z" fill="white"/>
</svg>
